<svg id="Layer_1" data-name="Layer 1" xmlns="http://www.w3.org/2000/svg" viewBox="0 0 52.76 40.25"><defs><style>.cls-1{fill:#fff;}</style></defs><path class="cls-1" d="M78.1,43c-.06-.43-.29-.54-.65-.58a19,19,0,0,0-2.91-.22c-.49,0-.63-.15-.63-.62a19.6,19.6,0,0,0-.27-3.15c0-.22-.11-.35-.36-.38a23.42,23.42,0,0,0-21,7.24c-.25.27-.39.33-.68,0a23.82,23.82,0,0,0-4.3-3.64,23.45,23.45,0,0,0-13.09-3.91,31.69,31.69,0,0,0-3.56.29.37.37,0,0,0-.37.36A22.18,22.18,0,0,0,30,41.62c0,.4-.12.57-.54.55a21.66,21.66,0,0,0-3,.22.59.59,0,0,0-.62.61,26.3,26.3,0,0,0-.22,4.94,23.24,23.24,0,0,0,1.64,7.31A23.85,23.85,0,0,0,34.51,65a23,23,0,0,0,8.16,4.26,22.07,22.07,0,0,0,8.48.8c1.48-.16,3,.16,4.45.11a23.92,23.92,0,0,0,22-17.62A23.56,23.56,0,0,0,78.1,43Zm-23.91,4.9a20.79,20.79,0,0,1,7.35-5.33,20.14,20.14,0,0,1,8.63-1.67c.47,0,.63.14.61.62,0,.84,0,.84-.85,1A23.48,23.48,0,0,0,60,46.75a25.78,25.78,0,0,0-4.08,3.8l-.32.34c-.53-.89-1-1.75-1.56-2.6C53.92,48.08,54.09,48,54.19,47.87Zm16.2-1.79a20.43,20.43,0,0,1-2.27,6,20.65,20.65,0,0,1-7.68,7.76c-.63.37-1.29.68-1.93,1-.3.15-.49.19-.51-.28a22.58,22.58,0,0,0-1-6,.46.46,0,0,1,.08-.45,21,21,0,0,1,12.74-8.45l.24-.05C70.55,45.62,70.43,45.88,70.39,46.08Zm-18.86,5.6c.14-.24.19-.66.44-.67s.31.41.44.65a19,19,0,0,1,2.37,7.74c0,.48.08,1,.08,1.3,0,1.45,0,1.41-1.3,1.65a11.36,11.36,0,0,1-4.07-.15.41.41,0,0,1-.4-.46A19.33,19.33,0,0,1,51.53,51.68ZM34.25,40.88A20.18,20.18,0,0,1,46.66,45a18.58,18.58,0,0,1,3.12,2.89c.11.13.23.22.1.42-.52.84-1,1.7-1.56,2.59a29,29,0,0,0-3.17-3.19A24.11,24.11,0,0,0,39.06,44,23.37,23.37,0,0,0,33.5,42.4c-.3,0-.39-.16-.36-.45C33.24,40.74,33,40.89,34.25,40.88ZM46.81,55A22.23,22.23,0,0,0,46,60.58c0,.4-.12.5-.49.32A21.07,21.07,0,0,1,34.63,49.66,19.3,19.3,0,0,1,33.54,46c-.06-.34,0-.38.27-.36A19.84,19.84,0,0,1,38.05,47a21,21,0,0,1,8.53,6.81A1.21,1.21,0,0,1,46.81,55ZM75.2,45.71a20.53,20.53,0,0,1-6.76,16,19.76,19.76,0,0,1-9.52,4.91,16.15,16.15,0,0,1-6.64.12,7.56,7.56,0,0,0-2.16.22c-.46,0-.92,0-1.53.08a19.66,19.66,0,0,1-9.05-2.46A20.68,20.68,0,0,1,30,53.6a20,20,0,0,1-1.3-7.82c0-.36.13-.49.49-.5.94,0,.94-.05,1.12.92A23.75,23.75,0,0,0,48.22,65.05a13,13,0,0,0,4.5.53,24.5,24.5,0,0,0,7.36-2.08,23.8,23.8,0,0,0,7.75-5.58A22.75,22.75,0,0,0,73.65,46c0-.24,0-.59.22-.66a2.12,2.12,0,0,1,1.17,0C75.24,45.39,75.2,45.57,75.2,45.71Z" transform="translate(-25.6 -29.88)"/><path class="cls-1" d="M52,29.88a5.56,5.56,0,1,0,5.49,5.64A5.55,5.55,0,0,0,52,29.88ZM52,37.82a2.39,2.39,0,1,1,2.41-2.35A2.36,2.36,0,0,1,52,37.82Z" transform="translate(-25.6 -29.88)"/></svg>